<?xml version="1.0" standalone="no"?>
<!DOCTYPE svg PUBLIC "-//W3C//DTD SVG 20010904//EN"
 "http://www.w3.org/TR/2001/REC-SVG-20010904/DTD/svg10.dtd">
<svg version="1.0" xmlns="http://www.w3.org/2000/svg"
 width="1262.000000pt" height="1280.000000pt" viewBox="0 0 1262.000000 1280.000000"
 preserveAspectRatio="xMidYMid meet">
<metadata>
Created by potrace 1.15, written by Peter Selinger 2001-2017
</metadata>
<g transform="translate(0.000000,1280.000000) scale(0.100000,-0.100000)"
fill="#000000" stroke="none">
<path d="M6995 12789 c-171 -19 -749 -117 -945 -160 -319 -72 -503 -189 -555
-355 -10 -33 -22 -64 -27 -71 -5 -6 -13 -53 -19 -103 -9 -90 -3 -239 22 -545
7 -95 7 -177 -2 -305 -13 -198 -7 -244 41 -291 l27 -28 -27 -3 c-28 -3 -28 -3
-15 -41 19 -55 63 -115 116 -156 l45 -36 -19 -45 c-50 -113 4 -288 119 -389
36 -32 37 -34 27 -76 -9 -39 -8 -44 11 -53 18 -9 16 -11 -17 -11 -51 -1 -136
-32 -194 -72 -112 -76 -444 -341 -535 -428 -86 -81 -160 -166 -235 -267 l-21
-29 19 55 c21 62 23 105 8 169 -9 40 -8 45 13 60 87 60 136 136 177 276 18 59
21 95 21 235 0 91 -5 209 -9 263 -9 95 -8 100 14 133 28 42 40 107 28 154 -8
29 -5 44 20 92 23 44 31 75 35 133 4 69 2 80 -26 138 -17 34 -56 87 -86 117
-50 50 -53 55 -33 60 28 8 25 45 -9 113 -103 203 -406 321 -1024 401 -100 13
-284 31 -678 66 -108 10 -149 6 -195 -17 -26 -13 -30 -12 -58 11 -16 14 -46
29 -67 33 -60 13 -257 7 -402 -11 -166 -22 -813 -136 -932 -165 -328 -80 -525
-211 -569 -378 -6 -21 -17 -54 -26 -73 -26 -57 -27 -235 -4 -550 17 -228 19
-305 11 -385 -21 -213 -11 -315 37 -367 15 -17 15 -18 -5 -18 -55 0 7 -139 99
-225 59 -54 60 -57 50 -87 -19 -53 -13 -134 14 -203 l26 -63 -29 -103 c-16
-57 -38 -149 -48 -203 l-19 -100 -64 -45 c-513 -366 -727 -587 -872 -896 -78
-167 -142 -390 -173 -605 -37 -254 -38 -359 -22 -1650 9 -685 20 -1630 26
-2100 14 -1210 17 -1344 34 -1426 59 -289 244 -580 482 -760 84 -62 349 -196
539 -271 397 -156 720 -226 1230 -268 105 -8 260 -22 345 -31 222 -23 293 -10
327 61 l17 35 20 -38 c39 -69 110 -85 286 -62 41 6 163 17 270 26 449 35 709
78 1029 169 270 77 599 220 776 337 100 66 277 241 337 333 108 164 181 347
212 524 21 126 21 156 -3 167 -19 9 -19 10 5 37 l24 28 163 -25 c1070 -169
2198 -108 3008 162 131 43 214 89 362 200 123 92 373 338 451 443 173 233 228
417 166 557 -21 49 -22 59 -12 115 6 38 9 128 5 232 -4 142 23 1360 77 3469 9
334 9 411 -2 417 -7 5 -8 9 -2 9 35 0 44 129 19 276 -54 309 -254 895 -361
1055 -161 240 -323 388 -733 669 -164 112 -197 131 -212 122 -17 -11 -17 -9
-4 27 7 22 36 60 69 91 64 61 97 113 120 189 20 66 20 101 3 169 l-14 51 39
28 c60 41 125 118 143 171 10 26 25 63 34 82 24 52 26 282 6 555 -13 167 -16
279 -11 410 7 192 2 232 -36 272 l-21 23 23 0 c20 0 22 3 16 32 -26 132 -153
244 -358 319 -208 76 -617 143 -1068 175 -309 22 -368 22 -406 3 -29 -15 -32
-15 -57 7 -49 42 -187 54 -382 33z m-2241 -3526 c-24 -36 -104 -201 -104 -214
0 -6 -4 -8 -8 -5 -5 3 -7 30 -4 60 4 50 9 59 66 119 69 73 76 79 50 40z"/>
<path d="M11010 3654 c-120 -32 -230 -109 -287 -200 -24 -39 -32 -44 -54 -40
-25 5 -27 2 -34 -42 -13 -95 -5 -88 -118 -95 -167 -11 -297 -41 -390 -89 -74
-40 -98 -78 -97 -155 0 -32 -2 -89 -5 -128 -8 -92 16 -141 102 -207 141 -107
418 -162 677 -136 147 16 158 15 251 -11 101 -29 284 -32 389 -7 91 22 182 66
238 116 106 93 158 228 114 295 -14 21 -14 28 -1 66 21 60 19 174 -5 252 -25
81 -86 173 -153 232 -64 56 -210 129 -297 150 -83 19 -257 18 -330 -1z"/>
<path d="M9470 2339 c-191 -22 -330 -69 -383 -129 -33 -36 -35 -41 -41 -141
-8 -121 1 -180 37 -242 53 -90 171 -154 338 -183 124 -22 383 -14 514 15 191
42 315 103 356 174 20 37 21 48 15 151 -4 61 -6 130 -6 154 2 90 -77 152 -240
188 -88 19 -469 28 -590 13z"/>
<path d="M11870 2330 c-242 -22 -425 -83 -476 -159 -16 -25 -25 -52 -25 -82 0
-24 -1 -84 -2 -134 -2 -103 9 -132 74 -195 109 -106 328 -151 623 -130 260 18
375 51 455 131 62 63 101 189 101 335 0 101 -49 152 -190 193 -130 39 -380 57
-560 41z"/>
<path d="M6350 1663 c-174 -17 -340 -61 -411 -108 -63 -41 -79 -76 -79 -170
l0 -81 -66 -43 c-55 -36 -136 -124 -156 -168 -1 -5 -59 -6 -128 -3 -251 10
-500 -13 -646 -61 -137 -45 -208 -123 -185 -205 7 -26 7 -43 -1 -58 -7 -12
-12 -50 -11 -86 1 -204 206 -332 554 -347 146 -6 274 5 406 37 l77 18 34 -29
c50 -44 177 -104 271 -128 95 -24 262 -29 353 -10 78 16 176 55 230 92 62 43
124 120 148 185 23 61 25 97 6 131 -11 19 -10 30 2 65 16 46 21 149 10 212
l-8 41 58 6 c177 19 308 109 347 240 9 29 21 97 27 152 15 135 3 177 -65 222
-104 70 -291 103 -562 101 -93 -1 -186 -3 -205 -5z"/>
<path d="M8650 1335 c-265 -53 -459 -233 -477 -441 -10 -118 34 -227 108 -269
20 -11 52 -40 71 -65 18 -25 56 -62 83 -82 50 -37 50 -38 56 -106 8 -84 33
-134 96 -193 57 -53 135 -92 241 -120 108 -29 360 -37 497 -15 249 38 459 132
492 219 27 71 10 339 -23 384 -44 60 -142 102 -290 125 l-72 11 -5 42 c-4 22
-9 49 -13 58 -4 12 -1 17 10 17 21 0 21 0 -15 115 -29 94 -34 102 -97 165
-118 116 -273 171 -482 169 -63 0 -144 -7 -180 -14z"/>
<path d="M742 739 c-285 -24 -483 -103 -508 -205 -4 -14 -4 -84 -2 -157 5
-149 14 -179 78 -244 49 -49 127 -88 222 -110 89 -21 440 -24 588 -4 311 40
401 122 431 390 14 119 7 161 -31 205 -90 102 -415 155 -778 125z"/>
</g>
</svg>
